{"title":"The Howling Reborn (2011) DvdRip Xvid {1337x}-X","uid":6759477,"size":732827648,"categoryP":"video","categoryS":"movies","magnet":"?xt=urn:btih:3b3eeadbb219a91dbbf1ad40b8511c0db9662dce&amp;dn=The+Howling+Reborn+%282011%29+DvdRip+Xvid+%7B1337x%7D-X&amp;tr=udp%3A%2F%2Ftracker.openbittorrent.com%3A80&amp;tr=udp%3A%2F%2Fopen.demonii.com%3A1337&amp;tr=udp%3A%2F%2Ftracker.coppersurfer.tk%3A6969&amp;tr=udp%3A%2F%2Fexodus.desync.com%3A6969","seeders":1,"leechers":1,"uploader":".BONE.","files":1,"time":1319156960,"description":"On the eve of his high school graduation, Will Kidman finally looks up from his books to catch the eye of the girl he's longed for the last four years - the mysterious Eliana Wynter. He's always been the shy kid, flying under the radar, but when he discovers a dark secret from his past - that he is heir to a powerful line of werewolves - he finds he has a choice to make between succumbing to his primal nature, or turning against his own, and maintaining his humanity. In order to fight the destiny of his legacy, and save Eliana - as well as himself - he must battle not only his growing blood lust but an army of fearsome beasts bent on killing him, Eliana...and then, us all.\n\n\n\nVideo\nID : 0\nFormat : MPEG-4 Visual\nFormat profile : Advanced Simple@L5\nFormat settings, BVOP : Yes\nFormat settings, QPel : No\nFormat settings, GMC : No warppoints\nFormat settings, Matrix : Default (H.263)\nMuxing mode : Packed bitstream\nCodec ID : XVID\nCodec ID/Hint : XviD\nDuration : 1h 32mn\nBit rate : 944 Kbps\nWidth : 640 pixels\nHeight : 352 pixels\nDisplay aspect ratio : 16:9\nFrame rate : 23.976 fps\nColor space : YUV\nChroma subsampling : 4:2:0\nBit depth : 8 bits\nScan type : Progressive\nBits/(Pixel*Frame) : 0.175\nStream size : 622 MiB (89%)\nWriting library : XviD 70\n\nAudio\nID : 1\nFormat : MPEG Audio\nFormat version : Version 1\nFormat profile : Layer 3\nMode : Joint stereo\nMode extension : MS Stereo\nCodec ID : 55\nCodec ID/Hint : MP3\nDuration : 1h 32mn\nBit rate mode : Variable\nBit rate : 104 Kbps\nNominal bit rate : 112 Kbps\nChannel(s) : 2 channels\nSampling rate : 48.0 KHz\nStream size : 68.3 MiB (10%)\nAlignment : Aligned on interleaves\nInterleave, duration : 24 ms (0.58 video frame)\nInterleave, preload duration : 177 ms\nWriting library : LAME3.97\nEncoding settings : -m j -V 4 -q 2 -lowpass 16 --abr 112\n\n\nIMDB &lt;a href=&quot;\nhttp://www.imdb.com/title/tt1554092/plotsummary&quot; rel=&quot;nofollow&quot; target=&quot;_NEW&quot;&gt;\nhttp://www.imdb.com/title/tt1554092/plotsummary&lt;/a&gt;","torrent":{"xt":"urn:btih:3b3eeadbb219a91dbbf1ad40b8511c0db9662dce","amp;dn":"The+Howling+Reborn+%282011%29+DvdRip+Xvid+%7B1337x%7D-X","amp;tr":["udp%3A%2F%2Ftracker.openbittorrent.com%3A80","udp%3A%2F%2Fopen.demonii.com%3A1337","udp%3A%2F%2Ftracker.coppersurfer.tk%3A6969","udp%3A%2F%2Fexodus.desync.com%3A6969"],"infoHash":"3b3eeadbb219a91dbbf1ad40b8511c0db9662dce","infoHashBuffer":{"type":"Buffer","data":[59,62,234,219,178,25,169,29,187,241,173,64,184,81,28,13,185,102,45,206]},"announce":[],"urlList":[]}}